<?xml version="1.0" encoding="utf-8"?>
<!-- Generator: Adobe Illustrator 26.5.0, SVG Export Plug-In . SVG Version: 6.00 Build 0)  -->
<svg version="1.1" id="Layer_1" xmlns="http://www.w3.org/2000/svg" xmlns:xlink="http://www.w3.org/1999/xlink" x="0px" y="0px"
	 viewBox="0 0 1838 666" style="enable-background:new 0 0 1838 666;" xml:space="preserve">
<style type="text/css">
	.st0{fill-rule:evenodd;clip-rule:evenodd;fill:url(#SVGID_1_);}
</style>
<linearGradient id="SVGID_1_" gradientUnits="userSpaceOnUse" x1="919" y1="8.7497" x2="919" y2="656.1702">
	<stop  offset="0" style="stop-color: #f9f0ff;"/>
	<stop  offset="1" style="stop-color: #b078ff;"/>
</linearGradient>
<path class="st0" d="M1737.2,646.2c-51.6,25.8-112.3,25.8-163.9,0l-19.3-9.7c-51.6-25.8-112.3-25.8-163.9,0l-19.3,9.7
	c-51.6,25.8-112.3,25.8-163.9,0l-19.3-9.7c-51.6-25.8-112.3-25.8-163.9,0l-19.3,9.7c-26.7,13.3-55.8,19.8-85.7,19.3
	c-28.1,0.4-57.2-6-83.9-19.3l-19.3-9.7c-51.6-25.8-112.3-25.8-163.9,0l-19.3,9.7c-51.6,25.8-112.3,25.8-163.9,0l-19.3-9.7
	c-51.6-25.8-112.3-25.8-163.9,0l-19.3,9.7c-51.6,25.8-112.3,25.8-163.9,0C39.7,615.2,0.5,551.7,0.5,482.3V0h738.6h360.8h737.7v482.3
	C1837.6,551.7,1799.2,615.2,1737.2,646.2z"/>
</svg>
